<?xml version="1.0" encoding="UTF-8" standalone="no"?>
<!-- Created with Inkscape (http://www.inkscape.org/) -->

<svg
   xmlns:dc="http://purl.org/dc/elements/1.1/"
   xmlns:cc="http://creativecommons.org/ns#"
   xmlns:rdf="http://www.w3.org/1999/02/22-rdf-syntax-ns#"
   xmlns:svg="http://www.w3.org/2000/svg"
   xmlns="http://www.w3.org/2000/svg"
   xmlns:xlink="http://www.w3.org/1999/xlink"
   xmlns:sodipodi="http://sodipodi.sourceforge.net/DTD/sodipodi-0.dtd"
   xmlns:inkscape="http://www.inkscape.org/namespaces/inkscape"
   width="125.44225mm"
   height="117.56683mm"
   viewBox="0 0 125.44224 117.56682"
   version="1.1"
   id="svg4774"
   sodipodi:docname="bitmask_logo_blue_gradient.svg"
   inkscape:version="0.92.3 (2405546, 2018-03-11)">
  <defs
     id="defs4768">
    <linearGradient
       x1="0"
       y1="0"
       x2="1"
       y2="0"
       gradientUnits="userSpaceOnUse"
       gradientTransform="matrix(-1.53e-5,-363.99963,-363.99963,1.53e-5,1130.1152,687)"
       spreadMethod="pad"
       id="linearGradient202">
      <stop
         style="stop-opacity:1;stop-color:#48c1ae"
         offset="0"
         id="stop204" />
      <stop
         style="stop-opacity:1;stop-color:#f89a2e"
         offset="1"
         id="stop206" />
    </linearGradient>
    <linearGradient
       inkscape:collect="always"
       xlink:href="#linearGradient202"
       id="linearGradient3455-7"
       gradientUnits="userSpaceOnUse"
       gradientTransform="matrix(0.60617118,0,0,-0.60617118,-935.9772,538.43053)"
       x1="1603.4326"
       y1="672.11096"
       x2="1573.4813"
       y2="977.61426" />
    <linearGradient
       inkscape:collect="always"
       xlink:href="#linearGradient202"
       id="linearGradient6048"
       gradientUnits="userSpaceOnUse"
       gradientTransform="matrix(0.16038279,0,0,-0.16038279,-364.58878,221.57696)"
       x1="2225.605"
       y1="153.63412"
       x2="1913.0658"
       y2="882.88831" />
  </defs>
  <sodipodi:namedview
     id="base"
     pagecolor="#ffffff"
     bordercolor="#666666"
     borderopacity="1.0"
     inkscape:pageopacity="0.0"
     inkscape:pageshadow="2"
     inkscape:zoom="0.35"
     inkscape:cx="-200.08663"
     inkscape:cy="202.17355"
     inkscape:document-units="mm"
     inkscape:current-layer="layer1"
     showgrid="false"
     showguides="false"
     fit-margin-top="0"
     fit-margin-left="0"
     fit-margin-right="0"
     fit-margin-bottom="0"
     inkscape:window-width="1366"
     inkscape:window-height="705"
     inkscape:window-x="-8"
     inkscape:window-y="-8"
     inkscape:window-maximized="1" />
  <metadata
     id="metadata4771">
    <rdf:RDF>
      <cc:Work
         rdf:about="">
        <dc:format>image/svg+xml</dc:format>
        <dc:type
           rdf:resource="http://purl.org/dc/dcmitype/StillImage" />
        <dc:title></dc:title>
      </cc:Work>
    </rdf:RDF>
  </metadata>
  <g
     inkscape:label="Layer 1"
     inkscape:groupmode="layer"
     id="layer1"
     transform="translate(-20.433635,-84.75826)">
    <path
       inkscape:connector-curvature="0"
       style="fill:#f6f6f6;fill-opacity:1;stroke:none;stroke-width:0.32459089"
       d="m 57.963962,136.35199 c -2.272146,12.00986 -0.326883,24.01778 3.359516,35.72123 0.608912,1.86737 1.300595,3.70131 2.077361,5.50181 2.326039,5.3986 5.450175,10.48721 9.405,15.04479 1.137397,1.14061 2.361064,2.21663 3.651678,3.20533 2.580467,1.97644 5.443998,3.59615 8.496166,4.67411 6.236344,2.2025 8.916562,-7.32667 16.602827,-10.97928 5.00245,3.10462 6.74505,12.20466 10.53296,9.94059 1.34122,-0.80206 2.60907,-1.89821 3.79771,-3.21345 1.4016,-1.72487 2.68342,-3.54129 3.8464,-5.42878 1.16336,-1.88717 2.21436,-3.8477 3.14042,-5.86698 5.52942,-12.24389 6.82356,-26.53043 3.98437,-39.89222 -0.63073,-3.90061 -1.10361,-6.54862 -1.10361,-6.54862 -8.90452,10.6014 -18.92999,22.70809 -23.35433,34.94221 -0.21602,-0.64754 -1.52788,-3.58674 -9.047989,-11.3688 -8.681548,-8.984 -23.782904,-21.01527 -35.388479,-25.73194 z M 84.3532,172.0083 c 4.214518,-0.13968 8.15212,3.22897 9.153463,7.4737 0.835162,2.37925 0.967595,4.90749 0.219099,7.12477 -0.747554,2.21436 -2.239373,3.74383 -4.041187,4.43878 -0.716666,0.27655 -1.483025,0.42197 -2.272146,0.42197 -1.193846,0 -2.438936,-0.32751 -3.643492,-1.02246 -1.354214,-0.78973 -2.492584,-1.85504 -3.391985,-3.09173 -3.359881,-4.66696 -4.02655,-13.86782 2.661655,-15.18274 0.438898,-0.0924 0.878586,-0.14784 1.314593,-0.16229 z m 31.06335,0.37328 c 3.89509,0 4.22033,4.86659 3.5218,8.11477 -0.39405,2.22799 -1.24546,4.45371 -2.44259,6.151 -1.28176,1.19968 -2.47728,2.65353 -4.15475,2.65353 -0.16162,0 -0.3239,-0.012 -0.49498,-0.0406 -0.97378,-0.32459 -1.94755,-1.29836 -2.27212,-2.27213 -0.48689,-1.29837 -0.75467,-2.71942 -0.79527,-4.15477 -0.0402,-1.43696 0.14674,-2.88593 0.55183,-4.25214 1.21785,-2.62691 2.84016,-6.19968 6.08608,-6.19968 z"
       id="path228-7-5" />
    <path
       style="fill:url(#linearGradient6048);fill-opacity:1;stroke:none;stroke-width:0.17107499;font-variant-east_asian:normal;opacity:1;vector-effect:none;stroke-linecap:butt;stroke-linejoin:miter;stroke-miterlimit:4;stroke-dasharray:none;stroke-dashoffset:0;stroke-opacity:1"
       d="m 27.882453,84.75826 c -8.644788,18.89281 -8.98074,40.8079 -4.990554,60.87703 0.598839,2.69638 1.311367,5.34796 2.1423,7.96059 4.982794,15.67904 14.320299,29.87307 27.492856,40.2655 1.520698,1.28181 2.887236,2.3416 4.041157,3.18099 2.308175,1.67814 3.740869,2.48312 3.740869,2.48312 h 0.0082 c -0.940969,-1.59829 -1.818033,-3.22416 -2.629186,-4.86886 -8.657143,-18.05407 -12.048793,-38.51693 -9.916231,-58.43448 0.513848,-4.97467 1.350958,-9.90618 2.49937,-14.75265 4.089541,1.86477 8.223175,3.78084 12.29391,5.84263 12.003634,6.15263 23.927784,13.77012 31.61514,25.08277 1.329169,1.86347 2.584028,3.79057 3.765244,5.75337 1.180517,1.96118 2.287362,3.95903 3.335142,5.98059 0,0 1.24216,-4.53766 5.81019,-12.87815 4.56803,-8.34048 12.71522,-18.27609 21.14709,-25.56153 6.52622,15.52258 6.51618,32.83042 3.75718,49.25667 -0.40415,2.34029 -0.85665,4.65073 -1.32275,6.9219 -0.41742,1.61256 -0.88677,3.21052 -1.40382,4.79583 -0.5262,1.62003 -1.09552,3.19657 -1.71225,4.73091 -1.58336,3.93534 -3.44552,7.57854 -5.44501,10.9306 14.66858,-17.67625 21.17338,-35.62904 23.17579,-51.95889 0.28011,-2.3403 0.46187,-4.6397 0.55992,-6.91378 0.34183,-17.24227 -2.32309,-34.8812 -9.66466,-50.530699 -1.04945,-2.221501 -2.20143,-4.401778 -3.46505,-6.532392 -1.64145,2.056607 -3.25304,4.156709 -4.82017,6.297062 -11.08479,14.643589 -19.01288,31.416839 -26.64078,48.055689 -0.42685,-0.99 -0.86343,-1.97773 -1.322713,-2.95377 -4.905227,-10.42197 -11.669386,-19.95845 -20.359972,-27.55778 -1.940759,-1.70897 -3.962616,-3.34491 -6.03739,-4.90132 C 69.38452,102.2167 65.017454,99.416133 60.552767,96.946646 58.200772,95.680093 55.80237,94.497608 53.371194,93.384263 48.508174,91.157568 43.506208,89.225928 38.440004,87.5822 36.71384,86.99242 34.973374,86.450351 33.214101,85.975475 31.455103,85.499626 29.676994,85.089017 27.882636,84.75826 Z"
       id="path188-5-1"
       inkscape:connector-curvature="0"
       sodipodi:nodetypes="cccccccccccccczcccccccccccccccccccc" />
  </g>
</svg>
