<?xml version="1.0" encoding="UTF-8" standalone="no"?>
<!-- Created with Inkscape (http://www.inkscape.org/) -->

<svg
   xmlns:dc="http://purl.org/dc/elements/1.1/"
   xmlns:cc="http://creativecommons.org/ns#"
   xmlns:rdf="http://www.w3.org/1999/02/22-rdf-syntax-ns#"
   xmlns:svg="http://www.w3.org/2000/svg"
   xmlns="http://www.w3.org/2000/svg"
   xmlns:sodipodi="http://sodipodi.sourceforge.net/DTD/sodipodi-0.dtd"
   xmlns:inkscape="http://www.inkscape.org/namespaces/inkscape"
   width="125.44225mm"
   height="117.56683mm"
   viewBox="0 0 125.44224 117.56682"
   version="1.1"
   id="svg4774"
   inkscape:version="0.92.3 (2405546, 2018-03-11)"
   sodipodi:docname="bitmask_logo_yellow.svg">
  <defs
     id="defs4768" />
  <sodipodi:namedview
     id="base"
     pagecolor="#ffffff"
     bordercolor="#666666"
     borderopacity="1.0"
     inkscape:pageopacity="0.0"
     inkscape:pageshadow="2"
     inkscape:zoom="0.35"
     inkscape:cx="-200.08663"
     inkscape:cy="202.17355"
     inkscape:document-units="mm"
     inkscape:current-layer="layer1"
     showgrid="false"
     showguides="false"
     fit-margin-top="0"
     fit-margin-left="0"
     fit-margin-right="0"
     fit-margin-bottom="0"
     inkscape:window-width="1920"
     inkscape:window-height="1017"
     inkscape:window-x="-8"
     inkscape:window-y="-8"
     inkscape:window-maximized="1" />
  <metadata
     id="metadata4771">
    <rdf:RDF>
      <cc:Work
         rdf:about="">
        <dc:format>image/svg+xml</dc:format>
        <dc:type
           rdf:resource="http://purl.org/dc/dcmitype/StillImage" />
        <dc:title></dc:title>
      </cc:Work>
    </rdf:RDF>
  </metadata>
  <g
     inkscape:label="Layer 1"
     inkscape:groupmode="layer"
     id="layer1"
     transform="translate(-20.433635,-84.75826)">
    <g
       transform="matrix(0.30430394,0,0,-0.30430394,-449.43617,355.05572)"
       id="g4302">
      <path
         id="path228-7-5"
         d="m 1667.4123,718.7016 c -7.4667,-39.46667 -1.0742,-78.92693 11.04,-117.38667 2.001,-6.13653 4.274,-12.1632 6.8266,-18.08 7.6438,-17.7408 17.9103,-34.46293 30.9066,-49.44 3.7377,-3.74826 7.7589,-7.28426 12.0001,-10.53333 8.4799,-6.49493 17.89,-11.8176 27.92,-15.36 20.4938,-7.23782 29.3015,24.07683 54.56,36.08 16.439,-10.20238 22.1655,-40.10683 34.6133,-32.66667 4.4075,2.63574 8.5739,6.23787 12.48,10.56 4.6059,5.66827 8.8182,11.63734 12.64,17.84 3.823,6.2016 7.2768,12.64427 10.32,19.28 18.1707,40.23574 22.4235,87.184 13.0934,131.09334 -2.0727,12.81813 -3.6267,21.52 -3.6267,21.52 -29.2619,-34.83821 -62.2075,-74.62306 -76.7467,-114.82667 -0.7099,2.12794 -5.0209,11.7867 -29.7334,37.36 -28.5292,29.52311 -78.1551,69.06014 -116.2932,84.56 z m 86.72,-117.17333 c 13.8497,0.459 26.7894,-10.61101 30.08,-24.56 2.7445,-7.81867 3.1797,-16.12694 0.72,-23.41334 -2.4566,-7.2768 -7.359,-12.30293 -13.2801,-14.58666 -2.3551,-0.9088 -4.8735,-1.38667 -7.4667,-1.38667 -3.9232,0 -8.0148,1.07627 -11.9732,3.36 -4.4502,2.5952 -8.1911,6.096 -11.1467,10.16 -11.0412,15.33653 -13.232,45.57227 8.7467,49.89333 1.4423,0.3037 2.8872,0.48585 4.32,0.53334 z m 102.08,-1.22667 c 12.8,0 13.8688,-15.99253 11.5733,-26.66667 -1.2949,-7.3216 -4.0928,-14.63573 -8.0268,-20.21333 -4.2121,-3.9424 -8.1408,-8.72 -13.6533,-8.72 -0.5311,0 -1.0644,0.0395 -1.6266,0.13333 -3.2,1.06667 -6.4,4.26667 -7.4666,7.46667 -1.6,4.26667 -2.48,8.93653 -2.6134,13.65333 -0.1322,4.72214 0.4822,9.48374 1.8134,13.97334 4.0021,8.63253 9.3333,20.37333 20,20.37333 z"
         style="fill:#f6f6f6;fill-opacity:1;stroke:none;stroke-width:1.06666672"
         inkscape:connector-curvature="0" />
      <path
         sodipodi:nodetypes="cccccccccccccczcccccccccccccccccccc"
         inkscape:connector-curvature="0"
         id="path188-5-1"
         d="m 1568.5588,888.24831 c -28.4084,-62.08533 -29.5124,-134.10244 -16.3999,-200.05338 1.9679,-8.8608 4.3094,-17.5744 7.04,-26.16 16.3744,-51.52426 47.0592,-98.16853 90.3467,-132.32 4.9973,-4.21226 9.488,-7.69493 13.28,-10.45333 7.5851,-5.51467 12.2932,-8.16 12.2932,-8.16 h 0.027 c -3.0922,5.25227 -5.9744,10.5952 -8.64,16 -28.449,59.32907 -39.5946,126.57387 -32.5866,192.02667 1.6886,16.34773 4.4395,32.5536 8.2134,48.48 13.439,-6.128 27.0229,-12.42454 40.4001,-19.2 39.4462,-20.21867 78.6312,-45.2512 103.8933,-82.42667 4.3679,-6.12373 8.4916,-12.45653 12.3733,-18.90667 3.8794,-6.4448 7.5167,-13.01013 10.9599,-19.65333 0,0 4.082,14.91159 19.0934,42.32 15.0114,27.40841 41.7846,60.05867 69.4933,84 21.4464,-51.01013 21.4134,-107.88693 12.3468,-161.86667 -1.3281,-7.69066 -2.8151,-15.2832 -4.3468,-22.74666 -1.3717,-5.2992 -2.9141,-10.5504 -4.6132,-15.76 -1.7292,-5.32374 -3.6001,-10.50454 -5.6268,-15.54667 -5.2032,-12.93227 -11.3226,-24.90453 -17.8933,-35.92 48.2037,58.08747 69.5797,117.08373 76.16,170.74667 0.9205,7.69066 1.5178,15.24693 1.84,22.72 1.1233,56.66133 -7.6341,114.62617 -31.7599,166.05337 -3.4487,7.30027 -7.2343,14.46507 -11.3868,21.46667 -5.3941,-6.7584 -10.6901,-13.65973 -15.84,-20.69333 -36.4267,-48.1216 -62.4799,-103.24165 -87.5466,-157.92005 -1.4027,3.25334 -2.8374,6.4992 -4.3467,9.70667 -16.1195,34.24853 -38.3478,65.5872 -66.9067,90.56004 -6.3777,5.616 -13.0219,10.992 -19.84,16.10667 -13.6435,10.22827 -27.9945,19.43147 -42.6663,27.54667 -7.7291,4.16213 -15.6107,8.048 -23.6,11.70666 -15.9808,7.31734 -32.4182,13.66507 -49.0667,19.06667 -5.6725,1.93813 -11.392,3.71947 -17.1733,5.28 -5.7804,1.56373 -11.6236,2.91307 -17.5202,4 z"
         style="fill:#ffc815;fill-opacity:1;stroke:none;stroke-width:1.06666672" />
    </g>
  </g>
</svg>
